<?xml version="1.0" encoding="iso-8859-1"?>
<svg version="1.1" id="Layer_1" xmlns="http://www.w3.org/2000/svg" xmlns:xlink="http://www.w3.org/1999/xlink" 
	 viewBox="0 0 496.2 496.2" xml:space="preserve">
<path style="fill:#334D5C;" d="M248.1,0C111.1,0,0,111.1,0,248.1s111.1,248.1,248.1,248.1s248.1-111.1,248.1-248.1S385.1,0,248.1,0z
	"/>
<path style="fill:#1D1D1E;" d="M340.3,342.1c-26.7-5.5-58.4-8.7-92.6-8.7c-34.4,0-66.3,3.3-92.9,8.8c-42.6,8.9-82.7,62.8-85.4,77.9
	c45.1,46.9,108.5,76,178.7,76s133.6-29.2,178.7-76C424.1,405,383.5,351,340.3,342.1z"/>
<polygon style="fill:#D4D6D8;" points="247.9,317 208.3,322.3 210.2,335.4 247.8,363.5 286,335.4 287.9,322.3 "/>
<path style="fill:#E2A379;" d="M287,282.1h-77.8c12.1,36.6,1,53.3,1,53.3l26.9,6.1h22l26.9-6.1C286,335.4,274.9,318.7,287,282.1z"/>
<path style="fill:#E6E7E8;" d="M304.2,336.5l-16.4-14.2l-39.7,19.2l-39.8-19.2l-16.2,14.1l-1.7,1.4c0,0,0.4,127.4,57.7,127.4
	s57.7-127.4,57.7-127.4L304.2,336.5z"/>
<polygon style="fill:#3C3C3F;" points="293.4,327.1 248.1,345.7 202.8,327.1 199.5,329.9 248.1,350.1 296.7,329.9 "/>
<g>
	<polygon style="fill:#1D1D1E;" points="210.6,327.7 210.6,361.9 241.7,351.1 241.7,338.4 	"/>
	<polygon style="fill:#1D1D1E;" points="254.5,338.4 254.5,351.1 285.6,361.9 285.6,327.7 	"/>
	<rect x="238.5" y="336.3" style="fill:#1D1D1E;" width="19.3" height="17.2"/>
</g>
<g>
	<circle style="fill:#9B9B9A;" cx="248.1" cy="378.1" r="4.5"/>
	<circle style="fill:#9B9B9A;" cx="248.1" cy="409.1" r="4.5"/>
	<circle style="fill:#9B9B9A;" cx="248.1" cy="440.1" r="4.5"/>
</g>
<g>
	<path style="fill:#1D1D1E;" d="M190.4,337.8c-48.7,7.8-83.7,24.9-89.1,44.9c-3.3,12.2-7,35.2-10.1,57.5c0,0,0,0,0,0.1
		c42.8,34.9,97.4,55.9,156.9,55.9c1.4,0,2.8,0,4.2-0.1h0.1v-31C211.5,424.2,190.4,337.8,190.4,337.8z"/>
	<path style="fill:#1D1D1E;" d="M394.8,382.8c-5.4-20-40.4-37.2-89.1-44.9c0,0-21.5,86.5-62.4,127.3v30.9c1.6,0,3.2,0.1,4.8,0.1
		c59.5,0,114.1-21,156.9-55.9l0,0C401.8,417.9,398.1,394.9,394.8,382.8z"/>
</g>
<circle style="fill:#0F0F0F;" cx="253.3" cy="469.6" r="5.8"/>
<circle style="fill:#1D1D1E;" cx="253.3" cy="469.6" r="4.8"/>
<path style="fill:#0F0F0F;" d="M295,371.9c-4,11.2-8.5,22.3-13.5,33.1c-5,10.8-10.5,21.4-16.8,31.5s-13.4,19.7-21.9,28l-0.2,0.2v0.3
	l-0.2,30.9h2l-0.2-30.6c8.3-8.5,15.3-18.2,21.5-28.3c6.2-10.2,11.7-20.9,16.5-31.8c4.9-10.9,9.2-22,13.2-33.3
	c3.9-11.3,7.5-22.7,10.4-34.3C302.7,349.4,299,360.7,295,371.9z"/>
<g>
	<path style="fill:#E6E7E8;" d="M418.5,382.8c-5.3-16.9-35-31.7-78.2-40.6l31,121.3c20.5-11.8,39.2-26.4,55.5-43.3
		C424.1,405,421.2,391.2,418.5,382.8z"/>
	<path style="fill:#E6E7E8;" d="M77.7,382.8c-2.6,8.5-5.5,22.2-8.3,37.4c16.1,16.7,34.4,31.1,54.6,42.8l20.9-81.9l9.9-38.8
		C112.2,351.1,82.9,366,77.7,382.8z"/>
</g>
<path style="fill:#F4B382;" d="M248.1,61.6c-48.7,0-88.3,21.2-88.3,113.6c0,31.3,6.2,55.8,15.5,74.7c20.4,41.6,55.7,56.1,72.8,56.1
	s52.4-14.5,72.8-56.1c9.3-18.9,15.5-43.4,15.5-74.7C336.4,82.8,296.8,61.6,248.1,61.6z"/>
<g>
	<path style="fill:#141414;" d="M248.1,59.1c-58,0-88.3,23.7-88.3,116.1l39.8-33.1c0,0,26.5,0,48.5,0s46.2-35.3,46.2-35.3l42.1,68.4
		C336.4,82.8,306.1,59.1,248.1,59.1z"/>
	<path style="fill:#141414;" d="M180.1,138.6l-14.6,2.2c-4.2,10.9-5.6,24.4-5.6,37.5c0,0,8.8-1.9,8.8,2.6l2.8,27.6l3.9-1.9
		C175,183.6,180.1,138.6,180.1,138.6z"/>
	<path style="fill:#141414;" d="M330.8,140.8l-14.6-0.4c0,0,5.1,43.2,4.9,66.2l3.9,1.9l2.8-27.6c0-4.5,8.8-2.6,8.8-2.6
		C336.5,165.1,335.1,151.7,330.8,140.8z"/>
</g>
<path style="fill:#E5A173;" d="M259.5,254.8c-3.3-0.5-11.4,2.7-11.4,2.7s-8.3-3.1-11.6-2.7c-5.3,0.8-13.1,4.9-13.1,6.4
	c0,2.4,11,8.8,24.7,8.8s24.7-6.5,24.7-8.8C272.8,261.2,264.9,255.5,259.5,254.8z"/>
<path style="fill:#D89364;" d="M248.1,262.4c-14.6,0-24.7-1.2-24.7-1.2c0,2.4,11,11.5,24.7,11.5c13.7,0,24.7-9.1,24.7-11.5
	C272.8,261.2,262.7,262.4,248.1,262.4z"/>
<g>
	<path style="fill:#F4B382;" d="M161.4,178c-8.4,1.4-14.9,5.1-10.1,32.9s10.7,29.1,19.1,27.7L161.4,178z"/>
	<path style="fill:#F4B382;" d="M334.9,178l-9,60.6c8.4,1.4,14.3,0.1,19.1-27.7C349.7,183.1,343.3,179.5,334.9,178z"/>
</g>
</svg>